<?xml version="1.0" encoding="UTF-8"?>
<svg xmlns="http://www.w3.org/2000/svg" version="1.1" viewBox="0 0 576.2 121.8">
  <!-- Generator: Adobe Illustrator 28.7.1, SVG Export Plug-In . SVG Version: 1.2.0 Build 142)  -->
  <g>
    <g id="Layer_1">
      <path d="M0,59.2v-19.3h53.2v19.3H0ZM15,120.3V19.6h21.6v100.7H15Z"/>
      <path d="M67.2,120.3V39.9h20.8l.8,25.8-3.7-5.5c1.3-4,3.3-7.8,6-11.1,2.7-3.3,5.9-6,9.6-8s7.6-3,11.6-3,3.5.1,5.1.4c1.6.2,2.9.6,4,1.1l-5.8,23.5c-1.1-.5-2.6-1-4.3-1.4-1.8-.5-3.6-.7-5.4-.7s-4.5.4-6.6,1.3c-2.1.9-3.9,2.1-5.5,3.6s-2.8,3.4-3.7,5.5-1.3,4.5-1.3,7.1v41.5h-21.7Z"/>
      <path d="M152.8,121.8c-5.1,0-9.6-1-13.8-3-4.1-2-7.3-4.8-9.7-8.4-2.4-3.6-3.6-7.8-3.6-12.7s.8-7.8,2.3-11c1.5-3.2,3.8-5.8,6.8-7.9,3-2.1,6.7-3.7,11.2-4.8,4.5-1.1,9.7-1.7,15.7-1.7h23.7l-1.4,14.4h-22.6c-2.4,0-4.6.2-6.5.6-1.9.4-3.4,1.1-4.7,2-1.3.9-2.2,2-2.9,3.2-.7,1.2-1,2.6-1,4.2s.5,3.2,1.4,4.6c.9,1.3,2.1,2.3,3.7,3,1.6.7,3.4,1.1,5.4,1.1,2.9,0,5.7-.5,8.4-1.5,2.7-1,5.1-2.4,7.2-4.2s3.8-3.9,5-6.2l4.1,10.8c-2.1,3.4-4.7,6.5-7.8,9.1-3,2.6-6.3,4.7-9.9,6.2-3.6,1.5-7.3,2.3-11.2,2.3h0ZM174.9,120.3v-50.3c0-4.2-1.3-7.5-3.9-9.8-2.6-2.3-6.1-3.4-10.4-3.4s-7.9.8-11.1,2.4c-3.2,1.6-6.3,4.2-9.1,7.6l-13.2-12.8c4.9-5.1,10.3-9,16.3-11.7,6-2.7,12.6-4.1,19.7-4.1s12.1,1,16.9,3c4.8,2,8.5,5.1,11.2,9.1,2.6,4.1,3.9,9.2,3.9,15.3v54.5h-20.4s0,0,0,0Z"/>
      <path d="M214.7,120.3V7.9h21.6v112.4h-21.6ZM235,96.2l-5.9-17.9,37.7-38.3h28.4l-60.2,56.2h0ZM269,120.3l-28.9-36,15.3-12.3,39.5,48.3h-26,0Z"/>
      <path d="M299.6,59.2v-19.3h53.2v19.3h-53.2ZM314.6,120.3V19.6h21.6v100.7h-21.6Z"/>
      <path d="M379.2,23.4c-4.1,0-7.4-1-9.7-3s-3.5-4.9-3.5-8.7,1.2-6.2,3.6-8.4C371.9,1.1,375.2,0,379.3,0s7.2,1,9.6,3.1c2.3,2.1,3.5,4.9,3.5,8.6s-1.2,6.4-3.5,8.5-5.6,3.2-9.7,3.2h0s0,0,0,0ZM368.5,120.3V39.9h21.6v80.4h-21.6Z"/>
      <path d="M448.3,121.8c-7.7,0-14.6-1.8-20.7-5.5s-10.9-8.6-14.4-15c-3.5-6.3-5.2-13.4-5.2-21.2s1.7-15.2,5.2-21.5c3.5-6.3,8.3-11.3,14.4-15,6.1-3.7,13-5.5,20.7-5.5s13.8,1.3,19.7,4c5.9,2.7,10.6,6.4,13.9,11l-11.7,14.3c-1.4-1.9-3.2-3.7-5.3-5.3s-4.4-2.9-6.9-3.8-5-1.4-7.7-1.4c-4.1,0-7.9,1-11.1,3-3.2,2-5.8,4.7-7.6,8.2-1.8,3.5-2.7,7.4-2.7,11.8s1,8.1,2.9,11.6c1.9,3.4,4.5,6.2,7.8,8.2,3.2,2,6.8,3,10.8,3s5.1-.4,7.5-1.1c2.4-.8,4.6-1.9,6.6-3.4,2-1.5,4-3.3,5.8-5.3l11.7,14.3c-3.3,4.4-8.1,7.9-14.2,10.6s-12.6,4-19.4,4h0Z"/>
      <path d="M495.7,120.3V7.9h21.6v112.4h-21.6,0ZM516.1,96.2l-5.9-17.9,37.7-38.3h28.4l-60.2,56.2ZM550.1,120.3l-28.9-36,15.3-12.3,39.5,48.3h-26Z"/>
    </g>
  </g>
</svg>